<svg width="25" height="17" viewBox="0 0 25 17" fill="none" xmlns="http://www.w3.org/2000/svg">
<path d="M24.4021 15.1096L18.3604 5.44292C18.252 5.26806 18.1008 5.12376 17.9211 5.0237C17.7413 4.92363 17.539 4.87111 17.3333 4.87111C17.1276 4.87111 16.9253 4.92363 16.7456 5.0237C16.5658 5.12376 16.4146 5.26806 16.3062 5.44292L15.0979 7.4125L11.1225 0.645836C11.0155 0.465525 10.8634 0.316156 10.6812 0.212409C10.499 0.108662 10.293 0.0541077 10.0833 0.0541077C9.87365 0.0541077 9.6676 0.108662 9.4854 0.212409C9.30321 0.316156 9.15114 0.465525 9.04415 0.645836L0.585818 15.1458C0.480068 15.329 0.424242 15.5367 0.423921 15.7482C0.4236 15.9597 0.478794 16.1676 0.583987 16.351C0.68918 16.5345 0.840688 16.6872 1.02337 16.7937C1.20605 16.9003 1.4135 16.9571 1.62498 16.9583H23.375C23.5909 16.9588 23.803 16.9013 23.9891 16.792C24.1753 16.6827 24.3288 16.5256 24.4337 16.3368C24.5385 16.1481 24.5909 15.9347 24.5853 15.7189C24.5798 15.5031 24.5165 15.2927 24.4021 15.1096ZM10.6271 14.5417H3.72748L10.0833 3.66667L13.6237 9.70833L10.6271 14.5417ZM13.4667 14.5417L16.125 10.3971L17.3333 8.36708L21.2 14.5417H13.4667Z" fill="#5DD9C1"/>
</svg>
